<svg xmlns="http://www.w3.org/2000/svg" width="15.439" height="12.487" viewBox="0 0 15.439 12.487"><defs><style>.a{fill:#f6f6f6;}</style></defs><g transform="translate(0 -48.942)"><path class="a" d="M202.65,169.039a1.658,1.658,0,0,0-.452,3.254v5.159a.452.452,0,0,0,.9,0v-5.159a1.658,1.658,0,0,0-.452-3.254Zm0,2.412a.754.754,0,1,1,.754-.754A.755.755,0,0,1,202.65,171.451Z" transform="translate(-194.93 -116.475)"/><path class="a" d="M132.194,139.584a.452.452,0,0,0-.64,0,3.586,3.586,0,0,0,0,5.075.452.452,0,0,0,.64-.64,2.682,2.682,0,0,1,0-3.8A.452.452,0,0,0,132.194,139.584Z" transform="translate(-126.568 -87.78)"/><path class="a" d="M321.763,139.585a.452.452,0,1,0-.64.64,2.687,2.687,0,0,1,0,3.8.452.452,0,1,0,.64.64A3.592,3.592,0,0,0,321.763,139.585Z" transform="translate(-311.311 -87.781)"/><path class="a" d="M68.868,94.969a.452.452,0,0,0-.64-.64,5.525,5.525,0,0,0,0,7.8.452.452,0,0,0,.64-.64A4.619,4.619,0,0,1,68.868,94.969Z" transform="translate(-64.607 -43.89)"/><path class="a" d="M367.018,94.33a.452.452,0,0,0-.64.64,4.619,4.619,0,0,1,0,6.525.452.452,0,0,0,.64.64A5.525,5.525,0,0,0,367.018,94.33Z" transform="translate(-355.202 -43.89)"/><path class="a" d="M2.9,49.714a.452.452,0,1,0-.64-.64,7.272,7.272,0,0,0,0,10.534.452.452,0,1,0,.64-.64A6.4,6.4,0,0,1,2.9,49.714Z" transform="translate(0 0)"/><path class="a" d="M412.273,49.075a.452.452,0,1,0-.64.64,6.4,6.4,0,0,1,0,9.254.452.452,0,1,0,.64.64A7.272,7.272,0,0,0,412.273,49.075Z" transform="translate(-399.092 0)"/></g></svg>