<svg xmlns="http://www.w3.org/2000/svg" width="32" height="32" viewBox="0 0 32 32"><defs><style>.a,.b{fill:#fff;}.a{opacity:0;}</style></defs><g transform="translate(-17 -65)"><rect class="a" width="32" height="32" rx="5" transform="translate(17 65)"/><g transform="translate(-6.74 70.471)"><path class="b" d="M103.744,67.324a.607.607,0,0,0,.607-.607,6.676,6.676,0,1,0-13.352,0,.607.607,0,0,0,1.214,0,5.462,5.462,0,1,1,10.925,0A.607.607,0,0,0,103.744,67.324Z" transform="translate(-57.572 -57.572)"/><path class="b" d="M155.247,120A4.288,4.288,0,0,0,151,124.289a.607.607,0,1,0,1.214,0,3.035,3.035,0,1,1,6.069,0,.607.607,0,0,0,1.214,0A4.288,4.288,0,0,0,155.247,120Z" transform="translate(-115.145 -115.145)"/><path class="b" d="M48.6,9.751a.607.607,0,0,0,.607-.607A9.1,9.1,0,1,0,31,9.144a.607.607,0,1,0,1.214,0,7.89,7.89,0,1,1,15.78,0A.607.607,0,0,0,48.6,9.751Z" transform="translate(0)"/><path class="b" d="M151.389,193.395a.61.61,0,0,0,.782-.355l.308-.861h5.531l.308.861a.607.607,0,0,0,1.137-.427l-3.407-9.126a1.817,1.817,0,0,0,1.018-1.626,1.821,1.821,0,1,0-3.642,0,1.817,1.817,0,0,0,1.018,1.626l-3.407,9.126A.608.608,0,0,0,151.389,193.395Zm1.545-2.43.455-1.214H157.1l.455,1.214Zm1.365-3.642h1.89l.455,1.214h-2.8Zm.455-1.214.49-1.306.49,1.306Z" transform="translate(-115.141 -172.717)"/></g></g></svg>