<svg xmlns="http://www.w3.org/2000/svg" width="32" height="32" viewBox="0 0 32 32"><defs><style>.a,.b{fill:#fff;}.a{opacity:0;}</style></defs><g transform="translate(-17 -65)"><rect class="a" width="32" height="32" rx="5" transform="translate(17 65)"/><g transform="translate(23.486 71.824)"><path class="b" d="M16.5,1.46h-.876V0h-1.46V1.46H4.527V0H3.066V1.46H2.19A2.193,2.193,0,0,0,0,3.65V16.5a2.193,2.193,0,0,0,2.19,2.19H16.5a2.193,2.193,0,0,0,2.19-2.19V3.65A2.193,2.193,0,0,0,16.5,1.46Zm.73,15.04a.731.731,0,0,1-.73.73H2.19a.731.731,0,0,1-.73-.73V6.863H17.23Zm0-11.1H1.46V3.65a.731.731,0,0,1,.73-.73h.876v1.46h1.46V2.92h9.637v1.46h1.46V2.92H16.5a.731.731,0,0,1,.73.73Z"/><g transform="translate(2.852 9.185)"><g transform="translate(0 0)"><rect class="b" width="1" height="1" transform="translate(-0.338 -0.008)"/></g></g><g transform="translate(5.514 9.176)"><g transform="translate(0 0)"><rect class="b" width="1" height="1" transform="translate(0)"/></g></g><g transform="translate(8.555 9.185)"><g transform="translate(0 0)"><rect class="b" width="1" height="1" transform="translate(-0.041 -0.008)"/></g></g><g transform="translate(11.407 9.185)"><g transform="translate(0.107 -0.008)"><rect class="b" width="1" height="1" transform="translate(0)"/></g></g><g transform="translate(14.259 9.185)"><g transform="translate(0.255 -0.008)"><rect class="b" width="1" height="1" transform="translate(0)"/></g></g><g transform="translate(2.852 11.086)"><g transform="translate(-0.338 0.091)"><rect class="b" width="1" height="1" transform="translate(0)"/></g></g><g transform="translate(5.514 11.176)"><g transform="translate(0 0)"><rect class="b" width="1" height="1" transform="translate(0)"/></g></g><g transform="translate(8.555 11.086)"><g transform="translate(-0.041 0.091)"><rect class="b" width="1" height="1" transform="translate(0)"/></g></g><g transform="translate(8.555 13.086)"><g transform="translate(-0.041 0.091)"><rect class="b" width="1" height="1" transform="translate(0)"/></g></g><g transform="translate(11.407 10.775)"><g transform="translate(0.107 0.091)"><rect class="b" width="1" height="1" transform="translate(0 0.311)"/></g></g><g transform="translate(2.852 12.938)"><g transform="translate(-0.338 0.239)"><rect class="b" width="1" height="1" transform="translate(0 0)"/></g></g><g transform="translate(2.852 14.938)"><g transform="translate(-0.338 0.239)"><rect class="b" width="1" height="1" transform="translate(0 0)"/></g></g><g transform="translate(5.703 13.271)"><g transform="translate(-0.189 -0.094)"><rect class="b" width="1" height="1" transform="translate(0 0)"/></g></g><g transform="translate(5.703 15.271)"><g transform="translate(-0.189 -0.094)"><rect class="b" width="1" height="1" transform="translate(0 0)"/></g></g><g transform="translate(8.555 14.721)"><g transform="translate(-0.041 0.239)"><rect class="b" width="1" height="1" transform="translate(0 0.217)"/></g></g><g transform="translate(11.407 12.635)"><g transform="translate(0.107 0.239)"><rect class="b" width="1" height="1" transform="translate(0 0.302)"/></g></g><g transform="translate(11.407 14.635)"><g transform="translate(0.107 0.239)"><rect class="b" width="1" height="1" transform="translate(0 0.302)"/></g></g><g transform="translate(14.259 11.086)"><g transform="translate(0.256 0.091)"><rect class="b" width="1" height="1" transform="translate(0)"/></g></g></g></g></svg>