<svg xmlns="http://www.w3.org/2000/svg" width="19.22" height="19.225" viewBox="0 0 19.22 19.225"><defs><style>.a{fill:#fff;}</style></defs><path class="a" d="M.008,5.766v4.485a5.773,5.773,0,0,0,5.766,5.766h.571a8.3,8.3,0,0,1,5.909,2.448l.6.6a.539.539,0,0,0,.383.16.546.546,0,0,0,.546-.544V16.008a5.773,5.773,0,0,0,5.446-5.757V5.766A5.773,5.773,0,0,0,13.462,0H5.774A5.773,5.773,0,0,0,.008,5.766ZM12.5,8.008A1.281,1.281,0,1,1,13.782,9.29,1.283,1.283,0,0,1,12.5,8.008Zm-4.164,0A1.281,1.281,0,1,1,9.618,9.29,1.283,1.283,0,0,1,8.337,8.008Zm-4.164,0A1.281,1.281,0,1,1,5.454,9.29,1.283,1.283,0,0,1,4.172,8.008Z" transform="translate(-0.008)"/></svg>