<svg width="41" height="40" viewBox="0 0 41 40" fill="none" xmlns="http://www.w3.org/2000/svg">
<path d="M22.3001 20.1773C22.2768 20.1541 22.2584 20.1265 22.2458 20.0962C22.2332 20.0658 22.2267 20.0332 22.2267 20.0003C22.2267 19.9675 22.2332 19.9349 22.2458 19.9045C22.2584 19.8741 22.2768 19.8466 22.3001 19.8233L31.5631 10.5613C31.8444 10.2797 32.0022 9.89782 32.002 9.49977C32.0017 9.10173 31.8433 8.7201 31.5616 8.43883C31.28 8.15757 30.8981 7.99972 30.5001 8C30.102 8.00028 29.7204 8.15867 29.4391 8.44033L20.1771 17.6983C20.1539 17.7216 20.1263 17.7401 20.0959 17.7527C20.0656 17.7653 20.033 17.7718 20.0001 17.7718C19.9672 17.7718 19.9347 17.7653 19.9043 17.7527C19.8739 17.7401 19.8463 17.7216 19.8231 17.6983L10.5611 8.44033C10.4219 8.301 10.2565 8.19046 10.0745 8.11503C9.89254 8.0396 9.69748 8.00075 9.50048 8.00071C9.10262 8.00061 8.72102 8.15857 8.43963 8.43983C8.15823 8.7211 8.00009 9.10262 8 9.50048C7.99991 9.89834 8.15786 10.2799 8.43913 10.5613L17.7001 19.8233C17.7234 19.8466 17.7419 19.8741 17.7545 19.9045C17.7671 19.9349 17.7736 19.9675 17.7736 20.0003C17.7736 20.0332 17.7671 20.0658 17.7545 20.0962C17.7419 20.1265 17.7234 20.1541 17.7001 20.1773L8.43913 29.4403C8.29986 29.5797 8.1894 29.7451 8.11406 29.9271C8.03871 30.1091 7.99995 30.3042 8 30.5012C8.00009 30.899 8.15823 31.2806 8.43963 31.5618C8.57896 31.7011 8.74436 31.8116 8.92638 31.8869C9.1084 31.9623 9.30348 32.001 9.50048 32.001C9.89834 32.0009 10.2799 31.8427 10.5611 31.5613L19.8231 22.2983C19.8463 22.2751 19.8739 22.2566 19.9043 22.244C19.9347 22.2314 19.9672 22.2249 20.0001 22.2249C20.033 22.2249 20.0656 22.2314 20.0959 22.244C20.1263 22.2566 20.1539 22.2751 20.1771 22.2983L29.4391 31.5613C29.7204 31.8427 30.1019 32.0009 30.4998 32.001C30.8976 32.0011 31.2792 31.8431 31.5606 31.5618C31.842 31.2806 32.0002 30.899 32.0003 30.5012C32.0003 30.1033 31.8424 29.7217 31.5611 29.4403L22.3001 20.1773Z" fill="currentColor"/>
</svg>
