<svg xmlns="http://www.w3.org/2000/svg" width="42" height="42" viewBox="0 0 42 42"><defs><style>.a{fill:#fff;}.b{fill:none;}.c{fill:#1383e3;}</style></defs><g transform="translate(-77 -547)"><rect class="a" width="29" height="30" transform="translate(84 554)"/><g transform="translate(77 547)"><path class="b" d="M0,0H42V42H0Z"/><path class="c" d="M24.7,34.5V22.31h4.083L29.4,17.57H24.7V14.546c0-1.372.382-2.308,2.348-2.308h2.51V8A33.583,33.583,0,0,0,25.9,7.813c-3.617,0-6.094,2.208-6.094,6.265V17.57H15.719V22.31h4.091V34.5H4.75A1.75,1.75,0,0,1,3,32.75v-28A1.75,1.75,0,0,1,4.75,3h28A1.75,1.75,0,0,1,34.5,4.75v28a1.75,1.75,0,0,1-1.75,1.75Z" transform="translate(2.25 2.25)"/></g></g></svg>