<svg xmlns="http://www.w3.org/2000/svg" width="24" height="24" viewBox="0 0 24 24"><defs><style>.a{fill:#fff;opacity:0;}.b{fill:currentColor;}</style></defs><g transform="translate(-3578 -580)"><rect class="a" width="24" height="24" transform="translate(3578 580)"/><path class="b" d="M10.889,22.543a4.432,4.432,0,0,0-2.036.488,4.516,4.516,0,0,0-1.169.861,4.516,4.516,0,0,0-1.169-.861,4.432,4.432,0,0,0-2.036-.488A4.486,4.486,0,0,0,0,27.024c0,1.75.924,3.608,2.747,5.524a26.561,26.561,0,0,0,4.68,3.77l.258.167.258-.167a26.559,26.559,0,0,0,4.68-3.77c1.823-1.916,2.747-3.774,2.747-5.524A4.486,4.486,0,0,0,10.889,22.543Z" transform="translate(3582.336 563.39)"/></g></svg>
