<svg xmlns="http://www.w3.org/2000/svg" width="24" height="24" viewBox="0 0 24 24"><defs><style>.a{fill:#fff;opacity:0;}.b{fill:currentColor;}</style></defs><g transform="translate(-3578 -580)"><rect class="a" width="24" height="24" transform="translate(3578 580)"/><g transform="translate(3584.165 585.547)"><g transform="translate(0)"><path class="b" d="M166.85,374.849a1.516,1.516,0,0,0,1.516-1.516h-3.032A1.515,1.515,0,0,0,166.85,374.849Z" transform="translate(-160.786 -360.069)"/><path class="b" d="M47.944,10.232V6.443a4.611,4.611,0,0,0-3.411-4.79V1.137a1.137,1.137,0,0,0-2.274,0v.515a4.611,4.611,0,0,0-3.411,4.79v3.79l-1.516,1.516v.758H49.46v-.758Z" transform="translate(-37.333 0)"/></g></g></g></svg>
