<svg xmlns="http://www.w3.org/2000/svg" width="24" height="24" viewBox="0 0 24 24"><defs><style>.a{fill:#fff;opacity:0;}.b{fill:currentColor;}</style></defs><g transform="translate(-3164 -611)"><rect class="a" width="24" height="24" rx="4" transform="translate(3164 611)"/><g transform="translate(3168.188 615.769)"><path class="b" d="M.484,277.779H5.811V271H.484a.484.484,0,0,0-.484.484v5.811A.484.484,0,0,0,.484,277.779Zm.868-3.651a.484.484,0,0,1,.685,0l.465.464,1.272-1.272a.484.484,0,0,1,.685.685l-1.614,1.614a.484.484,0,0,1-.685,0l-.807-.807a.484.484,0,0,1,0-.685Z" transform="translate(0 -263.252)"/><path class="b" d="M215.843,277.295v-5.811a.484.484,0,0,0-.484-.484H210v6.779h5.359A.484.484,0,0,0,215.843,277.295Z" transform="translate(-203.221 -263.252)"/><path class="b" d="M.484,37.779H5.811V31H.484A.484.484,0,0,0,0,31.484V37.3A.484.484,0,0,0,.484,37.779Zm1.11-4.016a.484.484,0,1,1,.685-.685l.626.626.626-.626a.484.484,0,1,1,.685.685l-.626.626.626.626a.484.484,0,1,1-.685.685l-.626-.626-.626.626a.484.484,0,1,1-.685-.685l.626-.626Z" transform="translate(0 -31)"/><path class="b" d="M219.265,31H210v6.779h9.265a.484.484,0,0,0,.484-.484V31.484A.484.484,0,0,0,219.265,31Z" transform="translate(-203.221 -31)"/></g></g></svg>
