<svg xmlns="http://www.w3.org/2000/svg" width="31.929" height="23.421" viewBox="0 0 31.929 23.421"><defs><style>.a{fill:#fff;}</style></defs><g transform="translate(-16.932)"><path class="a" d="M23.625,2.446A1.431,1.431,0,1,0,21.6.422,15.987,15.987,0,0,0,21.6,23a1.431,1.431,0,1,0,2.024-2.023A13.121,13.121,0,0,1,23.625,2.446Z" transform="translate(0 -0.002)"/><path class="a" d="M149.4.419a1.431,1.431,0,1,0-2.024,2.024,13.106,13.106,0,0,1,0,18.535A1.431,1.431,0,0,0,149.4,23a15.967,15.967,0,0,0,0-22.582Z" transform="translate(-105.212 0)"/><path class="a" d="M48.566,35.494a1.431,1.431,0,1,0,2.024-2.023,7.664,7.664,0,0,1,0-10.826,1.431,1.431,0,1,0-2.024-2.024A10.53,10.53,0,0,0,48.566,35.494Z" transform="translate(-23.11 -16.347)"/><path class="a" d="M127.171,35.494a1.431,1.431,0,0,0,2.024,0,10.517,10.517,0,0,0,0-14.874,1.431,1.431,0,1,0-2.023,2.024,7.655,7.655,0,0,1,0,10.826A1.431,1.431,0,0,0,127.171,35.494Z" transform="translate(-88.866 -16.346)"/><path class="a" d="M85.165,49.594a3.634,3.634,0,1,0-3.635-3.635A3.634,3.634,0,0,0,85.165,49.594Z" transform="translate(-52.273 -34.249)"/></g></svg>