<svg xmlns="http://www.w3.org/2000/svg" width="38.494" height="35.868" viewBox="0 0 38.494 35.868"><defs><style>.a{fill:#ffe100;}.b{fill:#fff;}.c{fill:#ffa800;}.d{fill:#848484;}</style></defs><g transform="translate(0 -16.494)"><path class="a" d="M58.679,59.614h-.448a5.541,5.541,0,0,1-4.035-1.6,6.76,6.76,0,0,0-2.5-1.473,9.631,9.631,0,0,0-1.281-.128,6.294,6.294,0,0,0-1.793.256,3.306,3.306,0,0,1-.7.128.412.412,0,0,1-.448-.384c-.064-.32-.128-.576-.192-.833-.128-.7-.256-1.153-.512-1.217-3.01-.512-3.907-1.281-4.1-1.793v-.256c0-.192.128-.384.256-.384,4.612-.9,6.725-6.4,6.789-6.6h0A2.8,2.8,0,0,0,49.9,43.6c-.32-.9-1.345-1.281-2.05-1.537a3.12,3.12,0,0,1-.448-.192c-1.345-.64-1.473-1.281-1.409-1.6a1.307,1.307,0,0,1,1.281-.961.813.813,0,0,1,.384.064,3.788,3.788,0,0,0,1.665.512c.64,0,.961-.32.961-.384,0-.384-.064-.769-.064-1.153-.128-2.562-.32-5.7.384-7.494,2.05-5.38,6.469-5.829,7.814-5.829h.64c1.281,0,5.7.448,7.814,5.828.7,1.793.512,5,.384,7.494v.128c0,.384-.064.7-.064,1.025a1.415,1.415,0,0,0,.9.384h0a3.339,3.339,0,0,0,1.537-.512,1.981,1.981,0,0,1,.512-.128,1.869,1.869,0,0,1,.576.128h0a1.156,1.156,0,0,1,.769.961c0,.384-.256.961-1.473,1.473a3.124,3.124,0,0,1-.448.192c-.7.256-1.729.64-2.05,1.537a2.154,2.154,0,0,0,.192,1.729h0c.064.256,2.05,5.764,6.725,6.661.192.064.32.192.256.384a.484.484,0,0,1-.064.256c-.192.512-.961,1.217-3.971,1.793-.256.064-.32.384-.512,1.217-.064.256-.128.576-.192.833a.423.423,0,0,1-.448.384H69.44a5.7,5.7,0,0,1-.7-.128,7.322,7.322,0,0,0-1.793-.192,7.88,7.88,0,0,0-1.281.128,6.759,6.759,0,0,0-2.5,1.473,6.539,6.539,0,0,1-4.483,1.537Z" transform="translate(-39.465 -7.893)"/><path class="b" d="M15.9,232.424c-.064-.32-.128-.576-.192-.833-.128-.7-.256-1.153-.512-1.217-3.01-.512-3.907-1.281-4.1-1.793v-.256c0-.192.128-.384.256-.384,4.612-.9,6.725-6.4,6.789-6.6h0a2.8,2.8,0,0,0,.192-1.729c-.32-.9-1.345-1.281-2.05-1.537a3.123,3.123,0,0,1-.448-.192c-1.345-.641-1.473-1.281-1.409-1.6a1.329,1.329,0,0,1,.384-.64,1.288,1.288,0,0,1-.512-.256.95.95,0,0,0-.448-.064,1.552,1.552,0,0,0-1.473.961c-.064.32.064.961,1.665,1.6a4.41,4.41,0,0,0,.512.192c.769.256,1.986.64,2.37,1.537a2.154,2.154,0,0,1-.192,1.729h0c-.128.256-2.5,5.764-7.878,6.6a.359.359,0,0,0-.32.384.484.484,0,0,0,.064.256c.192.512,1.217,1.281,4.74,1.793.32.064.384.512.576,1.217.064.256.128.576.192.833a.535.535,0,0,0,.576.384,4.724,4.724,0,0,0,.769-.128,1.977,1.977,0,0,0,.512-.128.224.224,0,0,1-.064-.128" transform="translate(-7.893 -183.905)"/><path class="c" d="M268.934,30.855c.7,1.793.512,5,.384,7.494v.128c0,.384-.064.7-.064,1.025a1.415,1.415,0,0,0,.9.384h0a3.212,3.212,0,0,0,.769-.128.9.9,0,0,1-.32-.192c0-.32.064-.7.064-1.025v-.128c.128-2.562.384-5.7-.448-7.494a9.8,9.8,0,0,0-9.031-5.892h-.064c1.281,0,5.7.448,7.814,5.828" transform="translate(-241.521 -7.893)"/><path class="b" d="M121.557,39.5a1.585,1.585,0,0,1-.384.256,3.216,3.216,0,0,0,.769.128c.64,0,.961-.32.961-.384,0-.384-.064-.769-.064-1.153-.128-2.562-.32-5.7.384-7.494,2.05-5.38,6.469-5.828,7.814-5.828h-.064a9.719,9.719,0,0,0-9.031,5.828c-.833,1.793-.576,5-.448,7.494,0,.448.064.833.064,1.153" transform="translate(-112.078 -7.893)"/><path class="c" d="M379.284,227.148c-5.38-.9-7.686-6.4-7.75-6.661h0a2.119,2.119,0,0,1-.192-1.729c.384-.9,1.6-1.281,2.37-1.537a4.412,4.412,0,0,0,.512-.192c1.409-.576,1.665-1.089,1.665-1.473s-.384-.769-.9-.961h0a2.276,2.276,0,0,0-.641-.128,1.053,1.053,0,0,0-.576.128,3.125,3.125,0,0,1-.448.192,1,1,0,0,1,.512.833c0,.384-.256.961-1.473,1.473a3.121,3.121,0,0,1-.448.192c-.7.256-1.729.64-2.05,1.537a2.154,2.154,0,0,0,.192,1.729h0c.064.256,2.05,5.764,6.725,6.661.192.064.32.192.256.384a.484.484,0,0,1-.064.256c-.192.512-.961,1.217-3.971,1.793-.256.064-.32.448-.512,1.217-.064.256-.128.576-.192.833,0,.064-.064.128-.064.192a1.869,1.869,0,0,1,.576.128,4.733,4.733,0,0,0,.769.128h.064a.487.487,0,0,0,.512-.384c.064-.32.128-.576.192-.833.192-.769.256-1.153.576-1.217,3.523-.512,4.355-1.281,4.612-1.793.064-.064.064-.128.064-.256,0-.32-.128-.512-.32-.512" transform="translate(-342.008 -183.113)"/><path class="d" d="M19.215,52.362h-.448a7.582,7.582,0,0,1-5.06-1.665,6.427,6.427,0,0,0-2.626-1.345,5.814,5.814,0,0,0-1.473-.192,7.884,7.884,0,0,0-1.986.256,5.027,5.027,0,0,1-.9.128,1.1,1.1,0,0,1-1.153-.833c-.064-.32-.128-.64-.192-.9-.064-.192-.128-.576-.192-.769-3.01-.512-4.676-1.153-5.06-2.178A.925.925,0,0,1,0,44.419a1.1,1.1,0,0,1,.833-1.089c5.06-.833,7.3-6.021,7.43-6.213A1.5,1.5,0,0,0,8.455,35.9c-.256-.576-1.345-.961-1.986-1.153a2.979,2.979,0,0,1-.576-.192c-1.921-.769-2.178-1.665-2.05-2.306.192-1.153,1.921-1.729,2.818-1.345a3.616,3.616,0,0,0,1.665.448c.192,0,.384-.064.512-.064a3.119,3.119,0,0,0-.064-.769c-.192-2.626-.384-5.893.512-7.814a10.346,10.346,0,0,1,9.607-6.213h.769a10.474,10.474,0,0,1,9.671,6.213c.9,1.921.64,5.188.512,7.814v.128a1.975,1.975,0,0,1-.064.64.813.813,0,0,0,.384.064,4.832,4.832,0,0,0,1.537-.448,2.507,2.507,0,0,1,.833-.192,2.046,2.046,0,0,1,.9.192,1.745,1.745,0,0,1,1.281,1.537c0,.833-.7,1.537-2.05,2.114a4.415,4.415,0,0,1-.512.192c-.7.192-1.793.576-2.05,1.153a1.482,1.482,0,0,0,.192,1.217v.064c.256.576,2.434,5.444,7.3,6.277a1.1,1.1,0,0,1,.9,1.089,1.186,1.186,0,0,1-.128.448c-.448.961-1.921,1.665-4.932,2.114-.064.192-.128.576-.192.7-.064.32-.128.576-.192.9a1.1,1.1,0,0,1-1.089.833A6.655,6.655,0,0,1,31,49.415a9.069,9.069,0,0,0-1.986-.192,10.465,10.465,0,0,0-1.409.128A7.328,7.328,0,0,0,24.979,50.7,10.317,10.317,0,0,1,19.215,52.362Zm-.256-1.281h.256a8.03,8.03,0,0,0,4.932-1.473,7.71,7.71,0,0,1,3.138-1.6,14.646,14.646,0,0,1,1.6-.128,10.818,10.818,0,0,1,2.242.256,2.942,2.942,0,0,0,.64.064c.064-.256.128-.512.192-.7.192-.833.32-1.6,1.089-1.665,2.754-.448,3.651-.961,3.971-1.217-5.316-1.089-7.686-6.341-7.942-6.981a2.574,2.574,0,0,1-.192-2.242c.512-1.153,1.921-1.6,2.754-1.857a4.416,4.416,0,0,0,.512-.192c1.025-.384,1.281-.769,1.281-.9,0-.064-.128-.256-.448-.384a.941.941,0,0,0-.7-.064,7.135,7.135,0,0,1-2.05.576,2.328,2.328,0,0,1-1.537-.576.727.727,0,0,1-.192-.512c0-.32.064-.64.064-1.025v-.128c.128-2.5.32-5.572-.384-7.238a9.268,9.268,0,0,0-8.519-5.316h-.7A9.084,9.084,0,0,0,10.5,23.219c-.769,1.665-.576,4.74-.384,7.238,0,.384.064.769.064,1.153a.581.581,0,0,1-.192.448,2.236,2.236,0,0,1-1.6.576,5.031,5.031,0,0,1-2.178-.576H6.021c-.384,0-.833.256-.833.448,0,.064.192.448,1.281.9a.926.926,0,0,0,.448.128c.9.256,2.306.7,2.818,1.857a2.814,2.814,0,0,1-.192,2.242h0c-.32.7-2.754,5.828-8.006,6.917.32.256,1.281.833,4.1,1.217.769.128.9.9,1.089,1.729l.192.769a2.816,2.816,0,0,0,.64-.128A9.363,9.363,0,0,1,9.8,47.878a13.47,13.47,0,0,1,1.6.128,7.331,7.331,0,0,1,3.138,1.6,6.7,6.7,0,0,0,4.355,1.473ZM5.316,47.045Z"/></g></svg>