<svg xmlns="http://www.w3.org/2000/svg" width="36.196" height="36.196" viewBox="0 0 36.196 36.196"><defs><style>.a{fill:#55acee;}.b{fill:#f1f2f2;}</style></defs><g transform="translate(-0.001)"><circle class="a" cx="18.098" cy="18.098" r="18.098" transform="translate(0.001 0)"/><g transform="translate(8.099 10.978)"><path class="b" d="M46.188,36.057a8.631,8.631,0,0,1-2.485.68,4.338,4.338,0,0,0,1.9-2.393,8.66,8.66,0,0,1-2.747,1.049,4.33,4.33,0,0,0-7.372,3.946,12.28,12.28,0,0,1-8.917-4.52A4.331,4.331,0,0,0,27.909,40.6a4.3,4.3,0,0,1-1.959-.542c0,.018,0,.037,0,.055a4.328,4.328,0,0,0,3.47,4.241,4.343,4.343,0,0,1-1.953.075,4.331,4.331,0,0,0,4.041,3,8.733,8.733,0,0,1-6.4,1.791A12.3,12.3,0,0,0,44.042,38.855c0-.187,0-.374-.013-.559a8.772,8.772,0,0,0,2.159-2.239Z" transform="translate(-25.103 -34.028)"/></g></g></svg>