<svg xmlns="http://www.w3.org/2000/svg" width="28.606" height="37.032" viewBox="0 0 28.606 37.032"><defs><style>.a{fill:#afafaf;}</style></defs><g transform="translate(-0.5)"><path class="a" d="M19.114,6.387V0H4.066A3.583,3.583,0,0,0,.5,3.556V33.476a3.583,3.583,0,0,0,3.566,3.556H25.541a3.583,3.583,0,0,0,3.566-3.556V10.482H23.219A4.1,4.1,0,0,1,19.114,6.387ZM8.494,18.33l5.741-6.162a.783.783,0,0,1,.578-.245.8.8,0,0,1,.578.245l5.741,6.162a.779.779,0,0,1-.568,1.313.834.834,0,0,1-.578-.245l-4.4-4.7v11.2a.784.784,0,1,1-1.567,0V14.7L9.64,19.4A.783.783,0,1,1,8.494,18.33ZM23.65,31.056a.786.786,0,0,1-.784.784H6.741a.784.784,0,1,1,0-1.567H22.876A.778.778,0,0,1,23.65,31.056Zm0,0"/><path class="a" d="M282.065,24.37h4.81l-7.347-7.71v5.182A2.523,2.523,0,0,0,282.065,24.37Zm0,0" transform="translate(-258.846 -15.455)"/></g></svg>