<svg xmlns="http://www.w3.org/2000/svg" width="20.207" height="21.762" viewBox="0 0 20.207 21.762"><defs><style>.a{fill:#fff;}</style></defs><g transform="translate(-17.064 0)"><g transform="translate(22.514 0)"><g transform="translate(0 0)"><path class="a" d="M145.831,4.113,141.945.227a.777.777,0,0,0-1.1,0L136.96,4.113a.777.777,0,0,0,1.1,1.1l2.559-2.559V6.994h1.554V2.653l2.559,2.559a.777.777,0,0,0,1.1-1.1Z" transform="translate(-136.741 0)"/></g></g><g transform="translate(17.064 6.994)"><g transform="translate(0)"><path class="a" d="M34.94,153.6H27.945v8.549a.777.777,0,0,1-1.554,0V153.6H19.4a2.332,2.332,0,0,0-2.332,2.332v10.1a2.332,2.332,0,0,0,2.332,2.332H34.94a2.332,2.332,0,0,0,2.332-2.332v-10.1A2.332,2.332,0,0,0,34.94,153.6Z" transform="translate(-17.064 -153.596)"/></g></g></g></svg>