<svg width="382" height="293" viewBox="0 0 382 293" fill="none" xmlns="http://www.w3.org/2000/svg">
<path d="M382 250.134H0V250.325H382V250.134Z" fill="#EBEBEB"/>
<path d="M343.724 262.426H318.42V262.617H343.724V262.426Z" fill="#EBEBEB"/>
<path d="M253.052 264.504H246.413V264.695H253.052V264.504Z" fill="#EBEBEB"/>
<path d="M317.656 255.336H302.995V255.527H317.656V255.336Z" fill="#EBEBEB"/>
<path d="M73.0766 256.62H40.0795V256.811H73.0766V256.62Z" fill="#EBEBEB"/>
<path d="M84.7199 256.62H79.8838V256.811H84.7199V256.62Z" fill="#EBEBEB"/>
<path d="M172.015 259.844H100.443V260.035H172.015V259.844Z" fill="#EBEBEB"/>
<path d="M181.068 216.059H33.5473C32.3916 216.057 31.284 215.597 30.4675 214.779C29.6511 213.961 29.1925 212.852 29.1925 211.697V4.32424C29.2026 3.1752 29.6656 2.07654 30.4809 1.26688C31.2963 0.457222 32.3982 0.00196836 33.5473 0H181.068C182.225 0 183.335 0.459613 184.153 1.27773C184.971 2.09585 185.431 3.20545 185.431 4.36244V211.697C185.431 212.854 184.971 213.963 184.153 214.782C183.335 215.6 182.225 216.059 181.068 216.059ZM33.5473 0.152801C32.4423 0.154824 31.3832 0.595206 30.6026 1.37728C29.8219 2.15936 29.3835 3.21923 29.3835 4.32424V211.697C29.3835 212.802 29.8219 213.862 30.6026 214.644C31.3832 215.426 32.4423 215.866 33.5473 215.868H181.068C182.174 215.866 183.234 215.426 184.016 214.644C184.797 213.862 185.238 212.803 185.24 211.697V4.32424C185.238 3.21853 184.797 2.15868 184.016 1.37682C183.234 0.594958 182.174 0.15482 181.068 0.152801H33.5473Z" fill="#EBEBEB"/>
<path d="M346.329 216.059H198.8C197.644 216.057 196.536 215.597 195.718 214.779C194.9 213.962 194.44 212.853 194.438 211.697V4.32424C194.45 3.17451 194.915 2.07585 195.731 1.2664C196.548 0.456955 197.651 0.00194689 198.8 0H346.329C347.477 0.00397624 348.577 0.460118 349.39 1.26956C350.204 2.079 350.666 3.17652 350.676 4.32424V211.697C350.676 212.851 350.218 213.958 349.404 214.776C348.589 215.594 347.483 216.055 346.329 216.059ZM198.8 0.152801C197.695 0.15482 196.635 0.594958 195.853 1.37682C195.071 2.15868 194.631 3.21853 194.629 4.32424V211.697C194.631 212.803 195.071 213.862 195.853 214.644C196.635 215.426 197.695 215.866 198.8 215.868H346.329C347.435 215.866 348.494 215.426 349.276 214.644C350.058 213.862 350.498 212.803 350.5 211.697V4.32424C350.498 3.21853 350.058 2.15868 349.276 1.37682C348.494 0.594958 347.435 0.15482 346.329 0.152801H198.8Z" fill="#EBEBEB"/>
<path d="M303.491 116.785V86.5994H304.699V117.61L303.491 116.785Z" fill="#E0E0E0"/>
<path d="M304.072 88.1656C304.072 88.1656 307.892 88.8073 310.322 90.7555C312.751 92.7037 314.348 92.2835 314.348 92.2835C314.265 92.7487 314.088 93.1919 313.827 93.5857C313.566 93.9795 313.227 94.3155 312.831 94.5727C312.435 94.8299 311.99 95.0029 311.524 95.081C311.058 95.159 310.581 95.1404 310.123 95.0263C309.015 94.8658 307.885 94.9781 306.83 95.3536C305.776 95.7291 304.829 96.3563 304.072 97.1808V88.1656Z" fill="#EBEBEB"/>
<path d="M350.5 249.828L194.552 250.172L202.192 225.502L202.743 223.722L218.97 217.243L234.334 206.975C234.334 206.975 242.05 210.429 243.112 207.548C243.234 207.168 243.265 206.766 243.204 206.372C242.845 203.514 244.541 199.786 245.993 197.204C246.569 196.176 247.199 195.179 247.88 194.216L263.274 184.04L267.858 178.058L270.433 170.922L272.557 165.009C272.557 165.009 275.254 149.92 276.782 149.286C278.31 148.651 285.186 144.549 285.186 144.549C286.683 144.472 288.098 143.843 289.159 142.784C290.558 141.323 291.443 139.445 291.68 137.436C291.962 135.77 292.398 133.708 292.887 131.523C294.522 124.257 296.875 115.624 296.875 115.624L308.144 116.319C308.144 116.319 312.392 150.661 311.842 153.946C311.658 155.069 312.216 158.339 313.118 162.197C314.86 169.608 317.87 179.158 319.298 179.601C319.68 179.694 320.022 179.905 320.276 180.204C320.53 180.503 320.683 180.875 320.712 181.267C320.939 183.15 321.401 184.998 322.087 186.767C323.294 189.739 326.182 203.751 328.146 213.645C329.284 219.367 330.101 223.699 330.101 223.699L332.447 225.105L343.38 231.637L350.5 249.828Z" fill="#EBEBEB"/>
<path d="M243.112 207.51L253.992 216.067L253.128 231.622L234.105 228.321L202.193 225.464L202.743 223.684L218.97 217.205L234.334 206.937C234.334 206.937 242.05 210.39 243.112 207.51Z" fill="#E0E0E0"/>
<path d="M280.846 192.979L283.138 216.067L260.295 191.657L246.008 197.181C246.584 196.153 247.214 195.156 247.895 194.193L263.29 184.017L267.874 178.035L270.448 170.899L271.762 180.739L280.846 192.979Z" fill="#E0E0E0"/>
<path d="M303.904 163.496L300.382 151.272L289.166 142.761C290.566 141.3 291.451 139.422 291.688 137.413C291.97 135.748 292.406 133.685 292.895 131.5L299.488 142.761L303.904 163.496Z" fill="#E0E0E0"/>
<path d="M320.72 181.244L315.074 198.946L307.311 204.148L301.154 217.557L303.904 198.946L312.797 192.314V177.607L313.125 162.167C314.867 169.577 317.878 179.127 319.306 179.571C319.688 179.663 320.03 179.874 320.284 180.173C320.538 180.473 320.69 180.845 320.72 181.236V181.244Z" fill="#E0E0E0"/>
<path d="M332.455 225.09L330.109 225.349L320.506 227.955L317.633 241.111L315.715 225.319L328.153 213.63C329.292 219.352 330.109 223.684 330.109 223.684L332.455 225.09Z" fill="#E0E0E0"/>
<path d="M135.197 194.553H105.447V250.134H135.197V194.553Z" fill="#E6E6E6"/>
<path d="M103.537 250.126H108.549V194.545H103.537V250.126Z" fill="#E0E0E0"/>
<path d="M105.157 147.039H75.4067V250.134H105.157V147.039Z" fill="#EBEBEB"/>
<path d="M70.9298 250.134H77.0265L77.0265 147.039H70.9298L70.9298 250.134Z" fill="#E0E0E0"/>
<path d="M75.1241 174.383H45.3739V250.134H75.1241V174.383Z" fill="#E6E6E6"/>
<path d="M41.0727 250.134H47.0013L47.0013 174.383H41.0727L41.0727 250.134Z" fill="#E0E0E0"/>
<path d="M106.532 111.307C105.004 109.779 102.2 110.406 99.9006 111.307C99.9006 111.086 99.9006 110.956 99.9006 110.956H75.7735C75.7735 110.956 75.7735 111.086 75.7735 111.307C73.4815 110.375 70.6547 109.779 69.142 111.307C67.4153 113.072 67.7973 119.245 70.5172 123.004C71.3435 124.164 72.4412 125.104 73.7143 125.741C74.9874 126.379 76.3974 126.696 77.821 126.664C80.0402 126.602 82.2227 126.082 84.231 125.136C88.3566 130.713 86.141 140.347 80.2352 141.141H95.4159C89.5026 140.377 87.2946 130.713 91.4202 125.136C93.4258 126.082 95.6057 126.602 97.8225 126.664C99.2473 126.697 100.659 126.38 101.933 125.742C103.207 125.104 104.306 124.164 105.134 123.004C107.846 119.245 108.236 113.072 106.532 111.307ZM72.3278 121.805C69.7532 118.389 70.0358 113.454 70.6547 112.812C71.3728 112.086 73.7107 112.751 75.9186 113.76C76.222 115.619 76.9153 117.393 77.9529 118.965C78.9904 120.537 80.3489 121.872 81.939 122.882C82.1834 123.05 82.4203 123.233 82.6495 123.417C78.0655 125.243 74.5205 124.692 72.3278 121.805ZM103.323 121.805C101.131 124.692 97.5857 125.235 93.0017 123.417C93.2309 123.233 93.4677 123.05 93.7122 122.882C95.3075 121.867 96.6691 120.525 97.707 118.944C98.7448 117.364 99.4352 115.581 99.7325 113.714C101.918 112.713 104.317 112.048 104.996 112.774C105.585 113.454 105.898 118.42 103.323 121.805Z" fill="#EBEBEB"/>
<path d="M96.9593 139.873H78.692V147.803H96.9593V139.873Z" fill="#E0E0E0"/>
<path d="M93.0704 43.548C93.0704 42.47 93.4987 41.4362 94.2609 40.674C95.0231 39.9117 96.0569 39.4835 97.1349 39.4835C97.5305 39.4847 97.9239 39.5413 98.3038 39.6516C98.2424 39.2393 98.2118 38.8231 98.2122 38.4063C98.2122 36.124 99.1183 33.9351 100.731 32.3206C102.344 30.7061 104.533 29.798 106.815 29.796C107.348 29.7964 107.88 29.8475 108.404 29.9488C109.25 28.5489 110.53 27.4633 112.05 26.8567C113.569 26.2501 115.245 26.1557 116.823 26.5877C118.4 27.0198 119.794 27.9547 120.793 29.2507C121.791 30.5467 122.339 32.1329 122.355 33.7688H122.477C123.407 33.7379 124.333 33.8944 125.201 34.2289C126.07 34.5635 126.861 35.0692 127.53 35.7161C128.199 36.363 128.731 37.1377 129.094 37.9943C129.457 38.8509 129.644 39.7717 129.644 40.7021C129.644 41.6325 129.457 42.5533 129.094 43.4099C128.731 44.2665 128.199 45.0412 127.53 45.6881C126.861 46.335 126.07 46.8407 125.201 47.1752C124.333 47.5098 123.407 47.6663 122.477 47.6354H97.028C95.964 47.6094 94.9529 47.1663 94.2126 46.4017C93.4723 45.6371 93.0621 44.6122 93.0704 43.548Z" fill="#F0F0F0"/>
<path d="M241.424 35.144C241.426 34.2956 241.764 33.4826 242.364 32.8827C242.964 32.2828 243.777 31.9449 244.625 31.9428C244.938 31.9426 245.249 31.9864 245.55 32.0727C245.504 31.7488 245.481 31.422 245.481 31.0948C245.481 30.0973 245.7 29.1121 246.124 28.2091C246.548 27.306 247.165 26.5075 247.932 25.87C248.7 25.2326 249.598 24.772 250.563 24.5209C251.529 24.2699 252.538 24.2345 253.518 24.4174C254.189 23.3197 255.198 22.4694 256.393 21.9946C257.589 21.5198 258.906 21.4462 260.147 21.7849C261.388 22.1236 262.485 22.8562 263.274 23.8725C264.063 24.8888 264.5 26.1337 264.52 27.42H264.619C266.07 27.42 267.461 27.9963 268.487 29.0222C269.513 30.048 270.089 31.4394 270.089 32.8902C270.089 34.341 269.513 35.7324 268.487 36.7582C267.461 37.7841 266.07 38.3604 264.619 38.3604H244.541C243.704 38.3385 242.909 37.9894 242.326 37.3882C241.744 36.7869 241.42 35.9813 241.424 35.144Z" fill="#F0F0F0"/>
<path d="M49.8892 79.7234C49.8882 79.0506 50.0198 78.3841 50.2766 77.7622C50.5334 77.1403 50.9103 76.5751 51.3857 76.0989C51.8611 75.6228 52.4258 75.2451 53.0473 74.9873C53.6689 74.7296 54.3351 74.597 55.008 74.597C55.5053 74.596 55.9999 74.6707 56.4748 74.8185C56.4019 74.297 56.3637 73.7713 56.3602 73.2447C56.358 71.6484 56.7076 70.0713 57.3841 68.6255C58.0606 67.1797 59.0473 65.9007 60.2742 64.8795C61.5011 63.8584 62.9379 63.1201 64.4824 62.7172C66.027 62.3144 67.6414 62.2568 69.2107 62.5487C70.2817 60.7949 71.8934 59.4365 73.8032 58.6781C75.7131 57.9197 77.8176 57.8022 79.7999 58.3435C81.7823 58.8848 83.5351 60.0554 84.7945 61.6792C86.0539 63.303 86.7517 65.2919 86.7827 67.3466H86.9432C88.1122 67.312 89.2762 67.5124 90.3664 67.9359C91.4565 68.3594 92.4506 68.9974 93.2897 69.812C94.1288 70.6267 94.7959 71.6015 95.2515 72.6786C95.707 73.7558 95.9417 74.9134 95.9417 76.083C95.9417 77.2525 95.707 78.4101 95.2515 79.4873C94.7959 80.5644 94.1288 81.5392 93.2897 82.3539C92.4506 83.1685 91.4565 83.8065 90.3664 84.23C89.2762 84.6535 88.1122 84.8539 86.9432 84.8193H54.8552C53.5276 84.7816 52.2668 84.2286 51.3398 83.2774C50.4129 82.3262 49.8926 81.0516 49.8892 79.7234Z" fill="#F0F0F0"/>
<path d="M276.186 64.4434C276.186 63.0838 276.726 61.7798 277.688 60.8185C278.649 59.8571 279.953 59.317 281.312 59.317C281.81 59.316 282.304 59.3907 282.779 59.5385C282.706 59.017 282.668 58.4912 282.665 57.9647C282.663 56.3684 283.012 54.7913 283.689 53.3455C284.365 51.8997 285.352 50.6207 286.579 49.5995C287.806 48.5784 289.242 47.8401 290.787 47.4372C292.332 47.0344 293.946 46.9768 295.515 47.2687C296.586 45.5149 298.198 44.1565 300.108 43.3981C302.018 42.6397 304.122 42.5222 306.104 43.0635C308.087 43.6048 309.84 44.7754 311.099 46.3992C312.358 48.0229 313.056 50.0119 313.087 52.0666H313.24C314.409 52.032 315.573 52.2324 316.663 52.6559C317.753 53.0794 318.748 53.7174 319.587 54.532C320.426 55.3467 321.093 56.3215 321.548 57.3986C322.004 58.4758 322.239 59.6334 322.239 60.8029C322.239 61.9725 322.004 63.1301 321.548 64.2072C321.093 65.2844 320.426 66.2592 319.587 67.0738C318.748 67.8885 317.753 68.5265 316.663 68.95C315.573 69.3735 314.409 69.5739 313.24 69.5393H281.152C279.824 69.5016 278.564 68.9485 277.637 67.9974C276.71 67.0462 276.189 65.7715 276.186 64.4434Z" fill="#F0F0F0"/>
<path d="M191 292.276C272.811 292.276 339.132 288.404 339.132 283.627C339.132 278.851 272.811 274.979 191 274.979C109.189 274.979 42.868 278.851 42.868 283.627C42.868 288.404 109.189 292.276 191 292.276Z" fill="#F5F5F5"/>
<path d="M211.032 71.3652C217.087 76.6631 224.742 79.7805 232.775 80.22C226.601 77.4387 221.334 72.9746 217.579 67.339C225.762 61.1658 230.896 52.3034 230.896 42.4631C230.896 23.8139 212.484 8.69432 189.77 8.69432C167.056 8.69432 148.644 23.8139 148.644 42.4631C148.644 52.3034 153.785 61.1658 161.968 67.339C158.212 72.9765 152.942 77.441 146.764 80.22C154.8 79.7804 162.457 76.6632 168.515 71.3652C175.145 74.5659 182.412 76.2283 189.774 76.2283C197.135 76.2283 204.402 74.5659 211.032 71.3652Z" fill="#0050C8"/>
<path opacity="0.6" d="M211.032 71.3652C217.087 76.6631 224.742 79.7805 232.775 80.22C226.601 77.4387 221.334 72.9746 217.579 67.339C225.762 61.1658 230.896 52.3034 230.896 42.4631C230.896 23.8139 212.484 8.69432 189.77 8.69432C167.056 8.69432 148.644 23.8139 148.644 42.4631C148.644 52.3034 153.785 61.1658 161.968 67.339C158.212 72.9765 152.942 77.441 146.764 80.22C154.8 79.7804 162.457 76.6632 168.515 71.3652C175.145 74.5659 182.412 76.2283 189.774 76.2283C197.135 76.2283 204.402 74.5659 211.032 71.3652Z" fill="white"/>
<path d="M189.754 63.2403C197.962 60.3046 201.658 49.6538 198.009 39.4512C194.36 29.2486 184.748 23.3576 176.54 26.2933C168.331 29.229 164.635 39.8798 168.284 50.0824C171.933 60.2851 181.546 66.1761 189.754 63.2403Z" fill="#0050C8"/>
<path d="M189.641 59.2666C196.268 56.8964 199.252 48.2984 196.307 40.0624C193.361 31.8264 185.601 27.0712 178.974 29.4414C172.347 31.8116 169.363 40.4096 172.308 48.6456C175.254 56.8816 183.014 61.6368 189.641 59.2666Z" fill="white"/>
<path d="M189.588 55.9239C194.896 54.0255 197.287 47.1401 194.928 40.5449C192.569 33.9497 186.354 30.1423 181.046 32.0407C175.738 33.9391 173.347 40.8245 175.706 47.4197C178.065 54.0148 184.28 57.8223 189.588 55.9239Z" fill="#0050C8"/>
<path d="M193.124 41.1949C194.935 46.2602 193.231 51.5012 189.304 52.8993C185.377 54.2975 180.747 51.3713 178.936 46.2678C177.126 41.1643 178.829 35.9615 182.756 34.5633C186.683 33.1652 191.313 36.1295 193.124 41.1949Z" fill="white"/>
<path d="M191.764 42.02C193.055 45.6337 191.94 49.3315 189.273 50.2865C186.607 51.2415 183.391 49.087 182.099 45.4809C180.808 41.8748 181.924 38.1618 184.598 37.2068C187.272 36.2518 190.496 38.3757 191.764 42.02Z" fill="#0050C8"/>
<path d="M190.855 42.3179C191.787 44.9232 191.076 47.5666 189.273 48.2084C187.47 48.8501 185.239 47.2686 184.307 44.6558C183.375 42.0429 184.086 39.4147 185.889 38.7653C187.692 38.1159 189.923 39.728 190.855 42.3179Z" fill="white"/>
<path d="M212.392 30.5294L207.533 32.2714L206.601 36.6873L210.123 39.5064L214.982 37.7722L211.376 34.9759L212.392 30.5294Z" fill="#0050C8"/>
<path d="M188.341 43.9834C188.176 43.9926 188.011 43.9477 187.874 43.8553C187.736 43.763 187.632 43.6283 187.577 43.4716C187.511 43.2811 187.523 43.0722 187.61 42.8904C187.698 42.7087 187.853 42.5688 188.043 42.5013L211.827 33.9903C212.018 33.9224 212.229 33.9334 212.412 34.0208C212.595 34.1082 212.737 34.2649 212.805 34.4564C212.872 34.6478 212.861 34.8584 212.774 35.0418C212.687 35.2252 212.53 35.3664 212.338 35.4343L188.555 43.9376C188.486 43.9631 188.414 43.9785 188.341 43.9834Z" fill="#263238"/>
<path d="M211.024 112.01L209.833 109.107C209.833 109.107 210.78 108.198 210.658 107.464C210.535 106.731 205.608 102.666 204.699 101.971C203.789 101.276 202.315 103.835 201.742 105.875C201.169 107.915 206.326 111.491 207.09 111.147L207.915 114.035L211.024 112.01Z" fill="#EBB376"/>
<path d="M240.996 111.475C231.912 112.583 221.789 125.945 218.84 124.242C215.891 122.538 210.436 110.276 210.436 110.276L207.311 112.125C207.311 112.125 210.153 134.632 217.106 135.488C224.058 136.343 236.924 129.116 236.924 129.116L240.996 111.475Z" fill="#263238"/>
<path opacity="0.2" d="M240.996 111.483L238.307 123.142L236.924 129.101C233.124 131.19 229.143 132.932 225.029 134.304C222.202 135.19 219.352 135.755 217.121 135.48C210.176 134.632 207.334 112.125 207.334 112.125L210.451 110.276C210.451 110.276 215.876 122.5 218.855 124.242C221.835 125.984 231.92 112.591 240.996 111.483Z" fill="white"/>
<path opacity="0.2" d="M238.307 123.142L236.924 129.101C233.124 131.19 229.143 132.932 225.029 134.304C226.45 126.602 235.205 123.875 238.307 123.142Z" fill="black"/>
<path d="M263.794 280.908H270.509C270.618 280.907 270.724 280.944 270.809 281.012C270.894 281.08 270.953 281.175 270.975 281.282L272.068 286.21C272.111 286.42 272.07 286.639 271.952 286.82C271.835 287 271.652 287.127 271.442 287.172C271.381 287.18 271.319 287.18 271.258 287.172C269.088 287.172 267.507 287.004 264.772 287.004C263.091 287.004 258.026 287.18 255.703 287.18C253.381 287.18 253.083 284.888 254.03 284.682C258.293 283.75 261.502 282.466 262.862 281.244C263.117 281.014 263.451 280.894 263.794 280.908Z" fill="#263238"/>
<path d="M229.681 280.908H236.397C236.507 280.907 236.614 280.943 236.7 281.011C236.786 281.079 236.846 281.175 236.871 281.282L237.955 286.21C237.979 286.314 237.981 286.422 237.962 286.528C237.943 286.633 237.903 286.733 237.845 286.823C237.787 286.913 237.711 286.99 237.622 287.05C237.534 287.11 237.434 287.152 237.329 287.172C237.271 287.18 237.212 287.18 237.153 287.172C234.976 287.172 233.394 287.004 230.667 287.004C228.986 287.004 223.913 287.18 221.598 287.18C219.283 287.18 218.97 284.888 219.925 284.682C224.181 283.75 227.389 282.466 228.757 281.244C229.009 281.015 229.341 280.894 229.681 280.908Z" fill="#263238"/>
<path d="M269.471 160.356C271.25 178.835 270.566 197.469 267.438 215.769C267.438 215.769 272.488 258.194 270.976 281.312H262.862C262.862 281.312 249.347 234.502 247.735 220.865C246.123 207.227 243.823 187.02 243.823 187.02C243.823 187.02 239.69 206.165 232.883 220.865C232.883 220.865 238.697 234.724 237.978 282.634L227.748 281.786C227.748 281.786 220.437 237.107 216.854 220.88C213.271 204.653 220.215 173.268 225.968 156.574L269.471 160.356Z" fill="#263238"/>
<path opacity="0.4" d="M269.471 160.356C271.25 178.835 270.566 197.469 267.438 215.769C267.438 215.769 272.488 258.194 270.976 281.312H262.862C262.862 281.312 249.347 234.502 247.735 220.865C246.123 207.227 243.823 187.02 243.823 187.02C243.823 187.02 239.69 206.165 232.883 220.865C232.883 220.865 238.697 234.724 237.978 282.634L227.748 281.786C227.748 281.786 220.437 237.107 216.854 220.88C213.271 204.653 220.215 173.268 225.968 156.574L269.471 160.356Z" fill="white"/>
<path d="M234.938 161.777L251.341 163.84L251.845 160.134L235.419 158.247L234.938 161.777Z" fill="#263238"/>
<path d="M253.098 160.28L252.586 164L269.539 165.75L269.379 162.144L253.098 160.28Z" fill="#263238"/>
<path d="M234.174 158.11L226.259 157.201L225.525 160.585L233.692 161.617L234.174 158.11Z" fill="#263238"/>
<path d="M244.129 163.183L238.972 162.595C238.889 162.588 238.809 162.565 238.735 162.527C238.662 162.489 238.597 162.437 238.544 162.374C238.49 162.311 238.45 162.238 238.425 162.159C238.4 162.08 238.391 161.997 238.399 161.915L238.826 158.813C238.841 158.728 238.873 158.646 238.919 158.573C238.966 158.5 239.026 158.438 239.098 158.389C239.169 158.339 239.249 158.305 239.334 158.287C239.418 158.27 239.506 158.269 239.59 158.286L244.755 158.874C244.837 158.881 244.917 158.904 244.99 158.942C245.063 158.98 245.128 159.032 245.181 159.095C245.233 159.158 245.273 159.232 245.297 159.31C245.321 159.389 245.329 159.472 245.32 159.554L244.893 162.656C244.879 162.741 244.848 162.823 244.802 162.897C244.755 162.97 244.695 163.033 244.623 163.083C244.552 163.132 244.471 163.166 244.386 163.183C244.301 163.201 244.214 163.2 244.129 163.183Z" fill="white"/>
<path d="M225.968 156.544C225.968 156.544 221.147 147.811 231.316 132.86C231.316 132.86 234.273 116.701 236.741 114.149C239.208 111.598 246.795 108.205 257.621 110.154C268.447 112.102 272.977 116.495 272.977 116.495L271.235 150.638C271.235 150.638 272.198 154.947 269.753 161.426L225.968 156.544Z" fill="#263238"/>
<path d="M264.436 111.353C260.318 113.401 250.645 114.012 250.645 114.012L245.297 110.62C247.964 110.375 249.637 109.856 250.645 109.092C252.25 107.892 252.128 106.219 251.616 104.584C251.616 104.584 251.616 104.584 251.616 104.531L258.981 101.536L264.054 99.4728C262.411 102.773 260.409 108.924 264.436 111.353Z" fill="#EBB376"/>
<path opacity="0.2" d="M261.968 102.307C261.112 107.311 254.641 109.061 250.646 109.061C252.25 107.862 252.128 106.188 251.616 104.553C251.623 104.534 251.623 104.512 251.616 104.492L258.981 101.497C259.134 102.109 262.052 101.681 261.968 102.307Z" fill="black"/>
<path d="M264.52 89.7548C264.197 88.7923 263.688 87.9028 263.021 87.1371C262.355 86.3715 261.544 85.7448 260.635 85.2928C259.726 84.8408 258.737 84.5724 257.724 84.503C256.711 84.4335 255.695 84.5644 254.733 84.8881C253.592 85.2641 252.563 85.9179 251.738 86.7905C249.713 87.8524 248.468 91.1988 248.682 93.4526C248.595 93.9262 248.527 94.3999 248.476 94.8736C247.994 96.1571 246.061 97.4636 247.1 101.391C248.392 106.272 253.625 107.541 256.948 106.739C258.422 106.559 259.804 105.929 260.906 104.935C261.242 104.638 261.556 104.316 261.846 103.973C264.008 101.452 264.206 98.281 264.848 93.315C265.018 92.1189 264.906 90.8996 264.52 89.7548Z" fill="#EBB376"/>
<path d="M256.169 94.3235C256.169 94.7819 255.871 95.1333 255.566 95.0875C255.26 95.0417 255.054 94.6749 255.077 94.2165C255.1 93.7581 255.382 93.4067 255.68 93.4525C255.978 93.4984 256.2 93.8575 256.169 94.3235Z" fill="#263238"/>
<path d="M250.974 93.972C250.974 94.4304 250.668 94.7895 250.37 94.736C250.072 94.6825 249.859 94.3235 249.889 93.8651C249.92 93.4067 250.195 93.0476 250.493 93.1011C250.791 93.1545 251.005 93.5213 250.974 93.972Z" fill="#263238"/>
<path d="M252.609 94.3006C251.966 95.6673 251.135 96.9376 250.141 98.0747C250.44 98.3233 250.79 98.5029 251.167 98.6006C251.543 98.6983 251.936 98.7118 252.319 98.6401L252.609 94.3006Z" fill="#D58745"/>
<path d="M258.041 92.5586C257.992 92.5699 257.942 92.5689 257.894 92.5555C257.846 92.5422 257.802 92.517 257.766 92.4822C257.536 92.2331 257.252 92.0406 256.935 91.92C256.618 91.7994 256.277 91.7538 255.94 91.787C255.87 91.8002 255.798 91.785 255.739 91.7449C255.68 91.7048 255.64 91.643 255.627 91.5731C255.614 91.5032 255.629 91.4309 255.669 91.3721C255.709 91.3134 255.771 91.273 255.841 91.2598C256.263 91.2089 256.691 91.2592 257.089 91.4067C257.488 91.5542 257.846 91.7945 258.133 92.1079C258.158 92.1328 258.178 92.1625 258.192 92.1953C258.206 92.2281 258.213 92.2633 258.213 92.2989C258.213 92.3344 258.206 92.3697 258.192 92.4025C258.178 92.4352 258.158 92.465 258.133 92.4899C258.107 92.5181 258.076 92.5414 258.041 92.5586Z" fill="#263238"/>
<path d="M249.064 92.36C249.009 92.3575 248.956 92.3389 248.911 92.3065C248.886 92.2816 248.865 92.2519 248.852 92.2191C248.838 92.1863 248.831 92.1511 248.831 92.1155C248.831 92.08 248.838 92.0447 248.852 92.0119C248.865 91.9791 248.886 91.9494 248.911 91.9245C249.223 91.6278 249.602 91.411 250.016 91.2926C250.429 91.1742 250.866 91.1577 251.287 91.2446C251.321 91.2534 251.353 91.269 251.382 91.2904C251.41 91.3117 251.433 91.3384 251.451 91.369C251.469 91.3995 251.48 91.4333 251.485 91.4683C251.49 91.5034 251.487 91.539 251.478 91.5731C251.458 91.6411 251.413 91.6989 251.352 91.7344C251.291 91.77 251.218 91.7806 251.15 91.7641C250.815 91.7065 250.472 91.7276 250.147 91.8257C249.822 91.9238 249.524 92.0963 249.278 92.3294C249.246 92.3491 249.211 92.362 249.174 92.3673C249.137 92.3726 249.1 92.3701 249.064 92.36Z" fill="#263238"/>
<path d="M251.448 86.8592C253.915 85.7438 254.083 87.6232 254.083 87.6232C254.083 87.6232 255.68 85.759 257.399 86.0494C259.118 86.3397 261.594 89.6325 261.739 90.0604C261.884 90.4882 261.059 91.3286 261.059 91.3286C261.059 91.3286 261.25 96.5238 261.311 97.9601L263.435 101.841C265.809 98.1301 267.088 93.8242 267.125 89.4186C267.194 82.0154 252.609 82.3745 252.609 82.3745L251.448 86.8592Z" fill="#263238"/>
<path d="M266.949 99.7402C266.533 100.31 266.008 100.791 265.405 101.157C264.802 101.523 264.132 101.766 263.435 101.872C261.571 102.147 260.875 100.42 261.586 98.7776C262.235 97.326 263.985 95.3854 265.765 95.8744C267.545 96.3633 267.965 98.3192 266.949 99.7402Z" fill="#EBB376"/>
<path d="M252.54 100.298C252.981 101.094 253.364 101.922 253.686 102.773L254.152 102.674C256.284 102.223 257.117 101.306 257.399 100.435C257.597 99.755 257.546 99.0261 257.254 98.3803C256.268 99.2971 254.32 99.8701 253.266 100.13C252.823 100.244 252.54 100.298 252.54 100.298Z" fill="#263238"/>
<path d="M253.266 100.13L253.618 100.856C255.627 100.42 256.972 99.8472 257.476 99.1061C257.434 98.8555 257.36 98.6115 257.254 98.3803C256.269 99.32 254.32 99.8701 253.266 100.13Z" fill="white"/>
<path d="M254.152 102.674C256.284 102.223 257.117 101.306 257.399 100.436C256.584 100.621 255.808 100.95 255.107 101.406C254.666 101.72 254.333 102.163 254.152 102.674Z" fill="#DE5753"/>
<path d="M252.609 82.4051C248.682 83.0468 248.025 88.433 250.982 88.9373C253.938 89.4415 251.478 87.5774 251.478 87.5774C251.478 87.5774 256.635 89.2811 257.521 89.0289C258.408 88.7768 257.224 87.5774 257.224 87.5774C257.224 87.5774 260.616 90.0145 263.42 89.0519C266.223 88.0892 264.038 80.5486 252.609 82.4051Z" fill="#263238"/>
<path d="M248.224 112.591L248.995 116.586L243.311 130.422L244.831 135.641L247.949 132.913L249.813 117.152L254.458 114.264L253.426 112.591L250.034 111.827L248.224 112.591Z" fill="#0050C8"/>
<path d="M249.255 108.121L251.937 111.468L263.106 107.892L265.589 112.316L253.151 118.244L251.119 113.11L245.252 116.487L244.763 110.276L249.255 108.121Z" fill="#263238"/>
<path opacity="0.2" d="M272.397 121.018C272.038 124.333 271.564 129.422 271.251 136.152C269.657 132.276 269.354 127.99 270.387 123.928C270.867 122.84 271.549 121.852 272.397 121.018Z" fill="black"/>
<path d="M262.388 146.604L259.416 147.292C259.416 147.292 258.721 146.169 258.003 146.161C257.285 146.153 252.533 150.447 251.715 151.241C250.898 152.036 253.052 154 254.893 154.955C256.735 155.91 261.051 151.28 260.86 150.462L263.756 150.141L262.388 146.604Z" fill="#EBB376"/>
<path d="M273 116.479C278.119 119.467 286.882 137.986 284.46 144.977C282.726 150.004 265.727 152.494 261.67 150.623L260.432 146.864C260.432 146.864 273.688 142.669 274.383 140.102C274.933 138.062 269.761 133.226 269.761 133.226C269.761 133.226 268.79 129.712 270.525 121.423C271.304 117.946 273 116.479 273 116.479Z" fill="#263238"/>
<path opacity="0.2" d="M273 116.479C278.119 119.467 286.882 137.986 284.46 144.977C282.726 150.004 265.727 152.494 261.67 150.623L260.432 146.864C260.432 146.864 273.688 142.669 274.383 140.102C274.933 138.062 269.761 133.226 269.761 133.226C269.761 133.226 268.79 129.712 270.525 121.423C271.304 117.946 273 116.479 273 116.479Z" fill="white"/>
<path opacity="0.2" d="M249.255 108.121L251.937 111.468L263.106 107.892L265.589 112.316L253.151 118.244L251.119 113.11L245.252 116.487L244.763 110.276L249.255 108.121Z" fill="white"/>
<path d="M156.62 104.416C156.23 103.545 156.62 101.238 156.62 101.238C156.62 101.238 163.106 97.8301 164.145 97.005C165.184 96.1799 166.353 99.9235 165.673 100.71C164.993 101.497 163.076 104.416 159.836 104.416L158.912 106.96L156.62 104.416Z" fill="#E4897B"/>
<path d="M139.048 107.266C141.5 107.854 148.567 117.198 150.974 116.938C153.381 116.678 156.269 104.141 156.269 104.141L159.798 105.203C159.798 105.203 158.033 120.964 153.541 123.08C149.049 125.197 138.261 116.204 138.261 116.204L139.048 107.266Z" fill="#0050C8"/>
<path opacity="0.4" d="M139.048 107.266C141.5 107.854 148.567 117.198 150.974 116.938C153.381 116.678 156.269 104.141 156.269 104.141L159.798 105.203C159.798 105.203 158.033 120.964 153.541 123.08C149.049 125.197 138.261 116.204 138.261 116.204L139.048 107.266Z" fill="white"/>
<path opacity="0.2" d="M139.048 116.892C141.065 118.472 143.192 119.907 145.412 121.186C145.086 119.629 144.424 118.162 143.473 116.887C142.522 115.613 141.304 114.561 139.904 113.805L139.048 116.892Z" fill="black"/>
<path d="M115.364 278.096H108.381C108.267 278.097 108.156 278.137 108.067 278.209C107.978 278.281 107.916 278.381 107.892 278.493L106.761 283.612C106.738 283.721 106.736 283.833 106.756 283.943C106.776 284.053 106.817 284.157 106.877 284.251C106.938 284.344 107.016 284.425 107.107 284.489C107.199 284.552 107.302 284.597 107.411 284.621H107.602C109.894 284.582 111.506 284.445 114.34 284.445C116.09 284.445 121.361 284.628 123.776 284.628C126.19 284.628 126.503 282.244 125.518 282.023C121.086 281.06 117.748 279.731 116.35 278.447C116.079 278.206 115.726 278.08 115.364 278.096Z" fill="#263238"/>
<path d="M144.977 277.913H137.994C137.879 277.913 137.768 277.953 137.679 278.025C137.591 278.098 137.529 278.198 137.505 278.31L136.374 283.444C136.35 283.553 136.348 283.665 136.368 283.775C136.388 283.884 136.429 283.989 136.49 284.083C136.55 284.176 136.628 284.257 136.72 284.321C136.811 284.384 136.915 284.429 137.023 284.452H137.214C139.506 284.414 141.118 284.277 143.953 284.277C145.702 284.277 150.974 284.46 153.388 284.46C155.803 284.46 156.116 282.076 155.13 281.855C150.699 280.892 147.36 279.563 145.962 278.279C145.693 278.036 145.34 277.904 144.977 277.913Z" fill="#263238"/>
<path d="M111.659 148.629H142.173C145.068 164.474 154.152 228.803 147.635 278.761H137.306C137.306 278.761 138.284 202.895 129.116 178.379C128.092 191.497 117.427 278.707 117.427 278.707H106.914C106.914 278.707 108.48 245.901 110.054 214.913C111.047 195.401 111.613 152.632 111.659 148.629Z" fill="#263238"/>
<path opacity="0.3" d="M129.116 178.379C130.615 182.677 131.755 187.093 132.523 191.581C133.379 179.907 129.964 167.522 129.964 167.522L129.116 178.379Z" fill="black"/>
<path d="M142.425 148.995H111.712V152.647L142.822 152.273L142.425 148.995Z" fill="black"/>
<path d="M121.583 153.839H122.683V147.345H121.583V153.839Z" fill="#263238"/>
<path d="M137.123 153.839H138.223V147.345H137.123V153.839Z" fill="#263238"/>
<path d="M128.421 152.449H134.105V148.353H128.421V152.449Z" fill="white"/>
<path opacity="0.3" d="M117.381 153.335H112.086L112.025 154.557L111.712 154.511C110.535 166.277 114.126 169.218 114.126 169.218C112.537 167.56 112.125 160.814 112.125 160.814C113.624 160.201 114.916 159.17 115.848 157.844C116.78 156.519 117.312 154.954 117.381 153.335Z" fill="black"/>
<path d="M111.979 150.401L115.303 154.779C115.303 154.779 115.807 154.244 116.831 155.741C116.035 157.797 114.493 159.477 112.514 160.448L112.942 157.132L109.519 152.647L111.979 150.401Z" fill="#E4897B"/>
<path d="M108.564 110.673C105.73 110.146 96.0882 134.304 98.0135 139.277C99.9388 144.251 110.78 156.085 110.78 156.085L114.126 152.953C114.126 152.953 105.226 141.088 103.942 137.184C102.659 133.28 109.764 120.895 109.764 120.895C110.283 118.97 110.479 116.972 110.344 114.982C110.195 113.4 109.575 111.899 108.564 110.673Z" fill="#0050C8"/>
<path opacity="0.4" d="M108.564 110.673C105.73 110.146 96.0882 134.304 98.0135 139.277C99.9388 144.251 110.78 156.085 110.78 156.085L114.126 152.953C114.126 152.953 105.226 141.088 103.942 137.184C102.659 133.28 109.764 120.895 109.764 120.895C110.283 118.97 110.479 116.972 110.344 114.982C110.195 113.4 109.575 111.899 108.564 110.673Z" fill="white"/>
<path d="M142.906 137.52C142.906 138.024 142.906 138.521 142.906 139.002C142.906 140.056 142.868 141.05 142.845 141.959C142.792 143.235 142.738 144.365 142.685 145.336C142.539 147.628 142.387 148.995 142.387 148.995H111.315C111.238 147.872 111.162 146.749 111.093 145.634C111.024 144.518 110.956 143.571 110.887 142.578C110.818 141.584 110.765 140.767 110.704 139.873C110.665 139.422 110.642 138.964 110.604 138.513C110.52 137.253 110.428 136.007 110.344 134.785C110.344 134.533 110.344 134.288 110.291 134.021C110.176 132.332 110.062 130.675 109.94 129.062C109.894 128.398 109.84 127.748 109.794 127.099C109.611 124.624 109.443 122.271 109.275 120.07C109.168 118.672 109.069 117.327 108.969 116.067C108.824 114.065 108.687 112.247 108.564 110.658L139.048 107.266C141.653 115.67 142.601 124.922 142.868 132.607C142.868 132.882 142.868 133.158 142.868 133.417C142.868 134.846 142.914 136.214 142.906 137.52Z" fill="#0050C8"/>
<path opacity="0.2" d="M108.969 116.052C109.069 117.32 109.168 118.657 109.275 120.063C109.443 122.263 109.611 124.608 109.794 127.091C110.412 124.01 110.719 120.875 110.711 117.732L108.969 116.052Z" fill="black"/>
<path opacity="0.4" d="M142.868 141.951C142.815 143.227 142.761 144.358 142.708 145.328L111.131 145.626C111.055 144.595 110.994 143.563 110.925 142.57L142.868 141.951Z" fill="white"/>
<path opacity="0.4" d="M142.906 137.52C142.906 138.024 142.906 138.521 142.906 139.002L110.704 139.812C110.665 139.361 110.642 138.903 110.604 138.452L142.906 137.52Z" fill="white"/>
<path opacity="0.4" d="M142.868 133.417L110.352 134.754C110.352 134.502 110.352 134.258 110.299 133.99L142.845 132.592C142.868 132.882 142.868 133.158 142.868 133.417Z" fill="white"/>
<path d="M118.13 109.81C120.872 112.102 125.006 112.82 125.006 112.82C125.006 112.82 129.712 109.29 128.826 108.068C126.434 107.785 126.771 107.067 126.236 105.669C125.935 104.801 125.812 103.881 125.877 102.964C125.889 102.453 125.933 101.942 126.007 101.436L117.755 95.8743C118.985 99.7401 120.582 106.868 118.13 109.81Z" fill="#E4897B"/>
<path opacity="0.2" d="M119.78 99.5645C120.307 104.339 124.303 105.485 126.243 105.676C125.942 104.808 125.82 103.888 125.884 102.972L119.78 99.5645Z" fill="black"/>
<path d="M127.932 81.9161C127.932 81.9161 131.309 88.9296 128.268 92.9635C125.227 96.9974 121.025 83.276 121.025 83.276L127.932 81.9161Z" fill="#263238"/>
<path d="M118.718 102.292C119.908 103.253 121.381 103.797 122.911 103.84C124.44 103.883 125.941 103.422 127.183 102.529C128.813 101.406 129.953 99.7037 130.369 97.7691C130.431 97.4995 130.477 97.2265 130.507 96.9516C131.049 91.8633 129.246 83.8108 123.585 82.321C122.336 81.9878 121.023 81.979 119.77 82.2954C118.518 82.6119 117.366 83.2432 116.426 84.1293C115.485 85.0155 114.787 86.1272 114.396 87.359C114.006 88.5909 113.937 89.902 114.195 91.1681C115.227 96.6078 115.578 99.8548 118.718 102.292Z" fill="#E4897B"/>
<path d="M122.729 91.6265C122.729 92.0696 123.065 92.3905 123.363 92.3905C123.661 92.3905 123.844 91.955 123.791 91.5119C123.737 91.0688 123.44 90.7479 123.149 90.7479C122.859 90.7479 122.675 91.1757 122.729 91.6265Z" fill="#263238"/>
<path d="M127.779 90.9694C127.779 91.4202 128.123 91.7334 128.413 91.7334C128.704 91.7334 128.895 91.298 128.841 90.8548C128.788 90.4117 128.497 90.0908 128.207 90.0908C127.917 90.0908 127.726 90.5492 127.779 90.9694Z" fill="#263238"/>
<path d="M126.205 91.3973C126.912 92.6975 127.797 93.8932 128.833 94.9499C128.554 95.2074 128.222 95.4015 127.861 95.5188C127.5 95.6362 127.117 95.6741 126.74 95.6299L126.205 91.3973Z" fill="#DE5753"/>
<path d="M129.36 88.6622C129.317 88.6863 129.269 88.6989 129.219 88.6989C129.17 88.6989 129.121 88.6863 129.078 88.6622C128.791 88.4974 128.47 88.4012 128.14 88.3813C127.81 88.3615 127.48 88.4184 127.175 88.5476C127.115 88.581 127.043 88.5889 126.976 88.5696C126.91 88.5503 126.854 88.5052 126.82 88.4445C126.787 88.3837 126.779 88.3121 126.798 88.2455C126.817 88.1788 126.862 88.1226 126.923 88.0892C127.304 87.9139 127.721 87.8321 128.14 87.8507C128.558 87.8693 128.966 87.9878 129.33 88.1962C129.392 88.2288 129.44 88.2848 129.461 88.3521C129.483 88.4193 129.477 88.4924 129.444 88.5552C129.421 88.5944 129.393 88.6303 129.36 88.6622Z" fill="#263238"/>
<path d="M121.476 89.7471C121.426 89.7624 121.373 89.7624 121.323 89.7471C121.274 89.6971 121.247 89.6299 121.247 89.5599C121.247 89.4899 121.274 89.4227 121.323 89.3727C121.595 89.0504 121.94 88.7981 122.33 88.6372C122.719 88.4764 123.142 88.4115 123.562 88.4483C123.632 88.4595 123.694 88.498 123.736 88.5553C123.777 88.6126 123.794 88.684 123.783 88.7538C123.77 88.8213 123.733 88.8815 123.677 88.9225C123.622 88.9635 123.554 88.9824 123.485 88.9754C123.153 88.9549 122.82 89.0135 122.515 89.1463C122.21 89.2791 121.94 89.4823 121.728 89.7394C121.69 89.7613 121.647 89.7735 121.603 89.7748C121.559 89.7762 121.515 89.7666 121.476 89.7471Z" fill="#263238"/>
<path d="M117.343 83.8031L118 84.7505C116.304 85.6596 117.03 87.6842 117.564 88.5705C118.695 90.4576 118.107 93.7886 116.8 95.3166C116.8 95.3166 116.594 94.4533 115.891 94.7895C115.188 95.1256 116.204 99.6485 118.03 101.566C118.03 101.566 115.502 99.9923 113.446 95.4541C111.521 91.2292 110.719 87.5696 111.322 85.6978L117.343 83.8031Z" fill="#263238"/>
<path d="M112.385 95.9813C112.761 96.5643 113.249 97.067 113.821 97.4604C114.393 97.8538 115.037 98.1301 115.716 98.2733C117.526 98.6324 118.29 96.9745 117.671 95.3319C117.114 93.8803 115.494 91.9015 113.729 92.2759C111.964 92.6502 111.452 94.5373 112.385 95.9813Z" fill="#E4897B"/>
<path d="M126.74 97.3794C126.348 98.0763 126.008 98.8016 125.724 99.5492C125.579 99.5492 125.441 99.4957 125.304 99.4575C123.439 99.0449 122.706 98.2351 122.462 97.4634C122.35 97.0863 122.332 96.6879 122.408 96.3022C122.442 96.0796 122.509 95.8634 122.607 95.6604C123.65 96.4146 124.843 96.9356 126.106 97.1884C126.495 97.3336 126.74 97.3794 126.74 97.3794Z" fill="#263238"/>
<path d="M126.106 97.2266L125.793 97.8607C124.028 97.4634 122.844 96.9515 122.408 96.3327C122.442 96.1102 122.509 95.8939 122.607 95.6909C123.649 96.4478 124.843 96.9715 126.106 97.2266Z" fill="white"/>
<path d="M125.296 99.4575C123.432 99.0449 122.698 98.2351 122.454 97.4634C123.162 97.635 123.834 97.9298 124.44 98.3344C124.837 98.6094 125.136 99.0024 125.296 99.4575Z" fill="#DE5753"/>
<path d="M111.093 89.0824C111.093 89.0824 108.328 84.7734 113.462 80.1741C118.596 75.5749 125.357 77.5001 126.786 79.4101C126.786 79.4101 130.881 80.3117 128.849 84.3761L126.152 82.2522C126.152 82.2522 121.866 89.2199 111.093 89.0824Z" fill="#263238"/>
<path d="M130.316 108.412L127.634 129.07L116.64 109.924L124.868 111.391L130.316 108.412Z" fill="#0050C8"/>
<path opacity="0.4" d="M130.316 108.412L128.199 124.7L127.634 129.07L125.548 125.441L116.64 109.924L124.868 111.391L130.316 108.412Z" fill="white"/>
<path d="M128.199 124.7L127.634 129.07L125.548 125.441L125.097 116.434L121.346 112.614L124.868 111.391L125.212 111.277L128.237 111.651L126.564 115.838L128.199 124.7Z" fill="#263238"/>
<path d="M119.092 107.533L124.883 110.688L126.786 106.792L130.316 108.412L129.017 114.539L125.258 112.224L122.454 115.807L116.64 109.924L119.092 107.533Z" fill="#0050C8"/>
<path opacity="0.6" d="M119.092 107.533L124.883 110.688L126.786 106.792L130.316 108.412L129.017 114.539L125.258 112.224L122.454 115.807L116.64 109.924L119.092 107.533Z" fill="white"/>
</svg>
